<svg width="201" height="201" viewBox="0 0 201 201" fill="none" xmlns="http://www.w3.org/2000/svg">
<rect x="5.7749" y="5.72192" width="190" height="190" rx="5" fill="white" stroke="#0275D8" stroke-width="10"/>
<path d="M173.96 169.8C169.976 160.363 164.194 151.791 156.936 144.561C149.701 137.31 141.13 131.529 131.696 127.537C131.612 127.495 131.527 127.474 131.443 127.431C144.601 117.927 153.155 102.445 153.155 84.9779C153.155 56.0419 129.711 32.5974 100.775 32.5974C71.839 32.5974 48.3945 56.0419 48.3945 84.9779C48.3945 102.445 56.9486 117.927 70.1071 127.453C70.0226 127.495 69.9381 127.516 69.8536 127.558C60.3913 131.55 51.9006 137.274 44.6138 144.582C37.3631 151.817 31.5822 160.388 27.5902 169.822C23.6684 179.057 21.5533 188.958 21.3594 198.99C21.3538 199.215 21.3933 199.44 21.4757 199.65C21.5581 199.859 21.6817 200.051 21.8391 200.212C21.9966 200.374 22.1848 200.502 22.3926 200.589C22.6004 200.677 22.8236 200.722 23.0491 200.722H35.7218C36.6511 200.722 37.3904 199.983 37.4115 199.074C37.8339 182.769 44.3815 167.498 55.9559 155.924C67.9316 143.948 83.8358 137.358 100.775 137.358C117.714 137.358 133.618 143.948 145.594 155.924C157.168 167.498 163.716 182.769 164.138 199.074C164.16 200.004 164.899 200.722 165.828 200.722H178.501C178.726 200.722 178.95 200.677 179.157 200.589C179.365 200.502 179.553 200.374 179.711 200.212C179.868 200.051 179.992 199.859 180.074 199.65C180.157 199.44 180.196 199.215 180.191 198.99C179.979 188.894 177.888 179.073 173.96 169.8ZM100.775 121.306C91.0804 121.306 81.956 117.526 75.0917 110.661C68.2273 103.797 64.4466 94.6725 64.4466 84.9779C64.4466 75.2833 68.2273 66.1589 75.0917 59.2946C81.956 52.4302 91.0804 48.6495 100.775 48.6495C110.47 48.6495 119.594 52.4302 126.458 59.2946C133.323 66.1589 137.103 75.2833 137.103 84.9779C137.103 94.6725 133.323 103.797 126.458 110.661C119.594 117.526 110.47 121.306 100.775 121.306Z" fill="#0275D8"/>
</svg>
